<?xml version="1.0" standalone="no"?>
<!DOCTYPE svg PUBLIC "-//W3C//DTD SVG 20010904//EN"
 "http://www.w3.org/TR/2001/REC-SVG-20010904/DTD/svg10.dtd">
<svg version="1.0" xmlns="http://www.w3.org/2000/svg"
 width="300.000000pt" height="300.000000pt" viewBox="0 0 300.000000 300.000000"
 preserveAspectRatio="xMidYMid meet">
<metadata>
Created by potrace 1.14, written by Peter Selinger 2001-2017
</metadata>
<g transform="translate(0.000000,300.000000) scale(0.100000,-0.100000)"
fill="#000000" stroke="none">
<path d="M82 2903 c0 -10 -3 -27 -7 -37 -6 -14 -5 -17 4 -11 10 6 11 3 2 -14
-7 -11 -14 -21 -17 -21 -3 0 -3 4 1 9 3 5 1 12 -4 16 -6 3 -8 -6 -5 -21 3 -14
-1 -33 -8 -42 -10 -12 -10 -14 0 -8 7 4 12 2 12 -4 0 -6 4 -9 8 -6 5 3 8 -10
8 -29 -1 -29 -3 -32 -20 -23 -14 8 -17 7 -10 -4 12 -18 12 -31 2 -45 -6 -7 -4
-14 3 -19 7 -4 9 -3 5 4 -3 6 -2 13 4 17 6 4 7 11 4 17 -4 6 -2 8 4 5 15 -10
3 -45 -21 -62 -24 -17 -16 -20 12 -6 14 8 17 5 16 -19 0 -15 -3 -26 -7 -23 -8
4 -12 -20 -8 -46 1 -8 -6 -21 -17 -29 -17 -13 -17 -13 2 -10 11 2 23 7 27 12
3 5 5 -2 5 -16 -2 -23 -5 -25 -22 -15 -17 9 -18 8 -8 -5 7 -8 9 -19 5 -23 -4
-5 -1 -4 7 0 11 6 13 4 8 -9 -4 -10 -7 -20 -7 -22 0 -3 -5 -2 -12 2 -7 4 -8 3
-4 -5 6 -9 12 -9 24 0 10 6 4 -1 -12 -16 -16 -14 -23 -26 -15 -25 27 4 35 0
35 -19 0 -11 -4 -17 -8 -15 -8 5 -12 -18 -8 -45 1 -8 -6 -21 -17 -29 -17 -13
-17 -13 2 -10 11 2 23 7 27 12 3 5 5 -2 5 -16 -2 -23 -5 -25 -22 -15 -17 8
-18 8 -9 -4 12 -16 12 -29 1 -46 -4 -6 -2 -15 4 -19 7 -4 9 -3 5 4 -3 6 -2 13
4 17 6 4 7 11 4 17 -4 6 -2 8 4 5 15 -10 3 -45 -21 -62 -24 -17 -16 -20 12 -6
14 8 17 5 16 -19 0 -15 -3 -26 -7 -23 -8 4 -12 -20 -8 -46 1 -8 -6 -21 -17
-29 -17 -13 -17 -13 2 -10 11 2 23 7 27 12 3 5 5 -2 5 -16 -2 -23 -5 -25 -22
-15 -17 9 -18 8 -8 -5 7 -8 9 -19 5 -23 -4 -5 -1 -4 7 0 11 6 13 4 8 -9 -4
-10 -7 -20 -7 -22 0 -3 -5 -2 -12 2 -7 4 -8 3 -4 -5 6 -9 12 -9 24 0 10 6 4
-1 -12 -16 -16 -14 -23 -26 -15 -25 27 4 35 0 35 -19 0 -11 -4 -17 -8 -15 -8
5 -12 -18 -8 -45 1 -8 -6 -21 -17 -29 -17 -13 -17 -13 2 -10 11 2 23 7 27 12
3 5 5 -2 5 -16 -2 -23 -5 -25 -22 -15 -18 9 -19 9 -5 -8 15 -19 15 -22 -1 -42
-7 -7 -6 -14 2 -19 7 -4 9 -3 5 4 -3 6 -2 13 4 17 6 4 7 11 4 17 -4 6 -2 8 4
5 15 -10 3 -45 -21 -62 -24 -17 -16 -20 12 -6 14 8 17 5 16 -19 0 -15 -3 -26
-7 -23 -8 4 -12 -20 -8 -46 1 -8 -6 -21 -17 -29 -17 -13 -17 -13 2 -10 11 2
23 7 27 12 3 5 5 -2 5 -16 -2 -23 -5 -25 -22 -15 -17 9 -18 8 -8 -5 7 -8 9
-19 5 -23 -4 -5 -1 -4 7 0 11 6 13 4 8 -9 -4 -10 -7 -20 -7 -22 0 -3 -5 -2
-12 2 -7 4 -8 3 -4 -5 6 -9 12 -9 24 0 10 6 4 -1 -12 -16 -16 -14 -23 -26 -15
-25 27 4 35 0 35 -19 0 -11 -4 -17 -8 -15 -8 5 -12 -18 -8 -45 1 -8 -6 -21
-17 -29 -17 -13 -17 -13 2 -10 11 2 23 7 27 12 3 5 5 -2 5 -16 -2 -23 -5 -25
-22 -15 -17 8 -18 8 -9 -4 12 -16 12 -29 1 -46 -4 -6 -2 -15 4 -19 7 -4 9 -3
5 4 -3 6 -2 13 4 17 6 4 7 11 4 17 -4 6 -2 8 4 5 15 -10 3 -45 -21 -62 -24
-17 -16 -20 12 -6 14 8 17 5 16 -19 0 -15 -3 -26 -7 -23 -8 4 -12 -20 -8 -46
1 -8 -6 -21 -17 -29 -17 -13 -17 -13 2 -10 11 2 23 7 27 12 3 5 5 -2 5 -16 -2
-23 -5 -25 -22 -15 -17 9 -18 8 -8 -5 7 -8 9 -19 5 -23 -4 -5 -1 -4 7 0 11 6
13 4 8 -9 -4 -10 -7 -20 -7 -22 0 -3 -5 -2 -12 2 -7 4 -8 3 -4 -5 6 -9 12 -9
24 0 10 6 4 -1 -12 -16 -16 -14 -23 -26 -15 -25 27 4 35 0 35 -19 0 -11 -4
-17 -8 -15 -8 5 -12 -18 -8 -45 1 -8 -6 -21 -17 -29 -17 -13 -17 -13 2 -10 11
2 23 7 27 12 3 5 5 -2 5 -16 -2 -23 -5 -25 -22 -15 -18 9 -19 9 -5 -8 15 -19
15 -22 -1 -42 -7 -7 -6 -14 2 -19 7 -4 9 -3 5 4 -3 6 -2 13 4 17 6 4 7 11 4
17 -4 6 -2 8 4 5 15 -10 3 -45 -21 -62 -24 -17 -16 -20 12 -6 14 8 17 5 16
-19 0 -15 -3 -26 -7 -23 -8 4 -12 -20 -8 -46 1 -8 -6 -21 -17 -29 -17 -13 -17
-13 2 -10 11 2 23 7 27 12 3 5 5 -2 5 -16 -2 -23 -5 -25 -22 -15 -17 9 -18 8
-8 -5 7 -8 9 -19 5 -23 -4 -5 -1 -4 7 0 11 6 13 4 7 -11 -16 -38 -18 -54 -7
-54 5 0 8 6 5 14 -3 8 0 17 7 22 8 4 10 3 5 -5 -4 -6 -2 -18 4 -26 7 -8 9 -15
4 -15 -5 0 0 -7 10 -15 26 -20 7 -19 -24 1 l-25 16 24 -21 c13 -12 17 -21 10
-21 -8 0 -5 -6 6 -14 14 -10 26 -11 44 -4 24 9 24 8 8 -10 -9 -10 -17 -23 -17
-28 0 -5 5 -2 10 6 8 13 11 13 22 1 11 -12 10 -12 -2 -6 -12 7 -13 6 -3 -7 7
-8 9 -18 5 -22 -4 -4 0 -6 8 -4 10 2 15 -4 14 -19 -1 -13 3 -20 7 -17 5 3 7
10 4 15 -4 5 1 9 9 9 19 0 20 -11 4 -29 -10 -11 -10 -13 -1 -7 7 4 13 2 13 -5
0 -8 4 -8 15 1 8 7 16 10 16 6 1 -3 3 -10 4 -16 1 -5 3 -15 4 -21 0 -6 10 -9
22 -6 20 5 20 5 3 -14 -9 -10 -14 -22 -11 -26 4 -3 7 -2 7 4 0 6 10 13 23 16
22 6 22 6 2 -10 -20 -15 -20 -15 3 -10 13 3 21 3 18 0 -3 -4 -1 -12 5 -19 6
-8 8 -21 5 -30 -6 -14 -4 -15 9 -4 14 12 16 10 12 -11 -2 -13 -2 -18 0 -10 4
12 6 12 15 0 7 -10 8 -8 4 10 -5 23 -5 23 24 -4 17 -16 33 -25 37 -21 5 4 8
441 8 971 0 530 4 967 8 971 4 4 7 -1 8 -12 0 -18 1 -18 10 1 8 17 9 16 6 -7
-4 -23 -2 -26 14 -18 29 16 33 11 8 -11 -13 -11 -18 -18 -12 -14 29 14 52 14
46 -1 -3 -9 0 -13 8 -11 8 2 11 2 6 0 -4 -3 -5 -10 -1 -16 3 -7 -3 -2 -15 11
-11 13 -22 18 -26 12 -3 -5 -1 -10 5 -10 6 0 8 -5 4 -12 -4 -7 -3 -8 4 -4 13
8 35 -27 24 -40 -4 -5 1 -3 10 5 9 7 14 19 11 27 -3 8 -1 14 4 14 11 0 15 -40
5 -55 -4 -6 2 -2 12 10 19 20 19 20 14 -7 -3 -17 -1 -25 5 -21 6 4 8 0 4 -11
-4 -9 -3 -15 2 -11 5 3 11 2 14 -2 4 -8 1 4 -10 37 -2 8 3 2 12 -13 10 -17 22
-26 31 -23 8 3 13 0 11 -7 -1 -7 4 -11 11 -9 9 1 7 -6 -5 -25 l-17 -28 22 19
c13 12 22 14 22 7 0 -7 5 -9 12 -5 7 4 8 3 4 -5 -4 -6 -12 -9 -17 -6 -5 3 -6
-1 -3 -10 5 -13 9 -13 22 -3 13 12 14 10 3 -10 -7 -13 -10 -26 -7 -30 3 -3 6
0 6 6 0 7 7 12 16 12 8 0 12 -4 9 -10 -3 -5 -1 -10 4 -10 6 0 11 5 11 12 0 6
6 3 14 -7 8 -11 11 -26 8 -34 -4 -10 -1 -12 9 -6 12 8 12 6 0 -8 -8 -10 -9
-17 -3 -17 6 0 14 5 17 10 3 6 11 10 16 10 6 0 3 -7 -5 -16 -20 -20 -20 -19 6
-21 19 -2 20 0 8 8 -13 9 -13 10 0 6 8 -2 14 -11 12 -21 -2 -9 3 -17 10 -17 7
-1 20 -2 28 -3 15 -1 16 -8 5 -38 -8 -20 10 -25 21 -6 5 7 3 8 -6 3 -8 -5 -11
-4 -7 3 4 5 17 8 29 4 20 -5 20 -6 4 -12 -17 -6 -17 -8 -3 -22 9 -9 14 -18 11
-21 -3 -3 9 -4 28 -2 18 2 25 1 16 -1 -10 -3 -18 -10 -18 -15 0 -6 9 -7 20 -4
12 4 20 2 20 -5 0 -6 -4 -8 -10 -5 -5 3 -10 2 -10 -3 0 -15 28 -23 33 -9 2 6
6 3 10 -7 4 -9 3 -15 -2 -11 -5 3 -12 1 -15 -3 -3 -5 6 -9 21 -8 16 1 28 -5
30 -14 4 -13 3 -13 -6 0 -8 11 -11 12 -11 2 0 -7 -4 -10 -10 -7 -5 3 -10 2
-10 -3 0 -5 18 -9 41 -10 22 -1 44 -4 49 -7 8 -5 57 29 77 55 7 8 13 12 13 8
0 -4 24 15 53 41 28 27 70 64 92 83 l39 36 -174 172 c-96 94 -352 346 -569
558 -216 213 -423 417 -459 455 -66 68 -91 82 -90 50z m-11 -116 c-10 -9 -11
-8 -5 6 3 10 9 15 12 12 3 -3 0 -11 -7 -18z m874 -1207 c3 -5 2 -10 -4 -10 -5
0 -13 5 -16 10 -3 6 -2 10 4 10 5 0 13 -4 16 -10z m-815 -1174 c0 -9 -30 -14
-35 -6 -4 6 3 10 14 10 12 0 21 -2 21 -4z m50 -66 c0 -5 -2 -10 -4 -10 -3 0
-8 5 -11 10 -3 6 -1 10 4 10 6 0 11 -4 11 -10z m41 -53 c-10 -9 -11 -8 -5 6 3
10 9 15 12 12 3 -3 0 -11 -7 -18z"/>
<path d="M2856 2898 c-16 -13 -47 -40 -69 -60 -22 -20 -44 -35 -49 -32 -5 3
-7 1 -6 -4 3 -10 -14 -27 -113 -112 -29 -25 -67 -60 -86 -77 -18 -18 -37 -33
-42 -33 -5 0 -12 -7 -15 -16 -3 -8 -11 -12 -16 -9 -6 4 -9 1 -8 -7 2 -7 -3
-12 -10 -10 -8 1 -11 -2 -7 -8 3 -5 -2 -13 -12 -17 -9 -4 -28 -18 -41 -32 -14
-15 -29 -25 -34 -23 -5 1 -7 -2 -3 -8 3 -5 -5 -15 -19 -21 -14 -7 -23 -16 -20
-20 3 -5 0 -9 -6 -9 -11 0 -48 -32 -120 -102 -16 -16 -31 -28 -34 -28 -3 0
-23 -18 -46 -41 -22 -22 -40 -38 -40 -35 0 3 -18 -13 -40 -35 -22 -22 -44 -37
-50 -34 -6 4 -9 2 -8 -2 3 -9 -75 -93 -86 -93 -2 0 -25 -20 -51 -45 -26 -24
-52 -42 -58 -38 -5 3 -7 2 -4 -4 4 -6 -14 -28 -40 -49 -26 -22 -52 -45 -59
-51 -7 -7 -18 -13 -24 -13 -6 0 -8 -4 -5 -10 3 -5 3 -10 -2 -10 -4 0 -35 -25
-68 -55 -33 -30 -63 -55 -68 -55 -4 0 -5 -4 -2 -10 3 -5 0 -10 -9 -10 -8 0
-16 -3 -18 -7 -8 -19 -121 -113 -129 -108 -5 4 -6 -2 -2 -12 3 -10 2 -15 -2
-11 -5 5 -15 -1 -22 -12 -8 -11 -19 -17 -25 -14 -7 4 -8 2 -4 -5 4 -6 1 -14
-8 -17 -8 -3 -41 -30 -72 -60 -31 -29 -62 -51 -68 -47 -6 3 -8 2 -3 -2 9 -11
-22 -45 -41 -45 -9 0 -13 -3 -9 -6 3 -4 -11 -20 -31 -38 -20 -17 -48 -40 -61
-51 -13 -11 -38 -35 -57 -52 -19 -18 -39 -33 -45 -33 -5 0 -7 -4 -4 -10 6 -9
-8 -14 -28 -11 -4 0 -6 -2 -5 -6 2 -5 -7 -18 -19 -30 -13 -13 -23 -21 -23 -18
0 3 -18 -13 -40 -36 -22 -23 -40 -39 -40 -36 0 3 -13 -6 -28 -21 -16 -15 -48
-43 -71 -62 -23 -19 -59 -51 -78 -70 -20 -19 -39 -34 -43 -33 -4 1 -6 -8 -5
-20 1 -12 -3 -29 -9 -37 -10 -13 -9 -13 6 -1 10 7 15 18 11 24 -3 6 -1 7 6 3
7 -5 9 -17 5 -29 -6 -21 -6 -21 8 -3 12 15 17 16 23 6 5 -9 4 -11 -3 -6 -7 4
-12 2 -12 -4 0 -8 9 -10 27 -5 l27 6 -23 -18 -24 -19 39 3 c30 2 35 1 19 -6
-18 -9 -18 -10 -2 -10 12 -1 16 -5 11 -13 -5 -8 0 -7 11 2 14 11 19 12 22 2 3
-6 10 -9 15 -6 6 4 8 2 5 -4 -11 -16 3 -42 23 -42 10 0 21 -6 23 -12 4 -10 8
-9 16 2 7 9 11 11 11 3 0 -7 -8 -17 -17 -23 -16 -10 -16 -11 2 -5 47 16 50 16
33 5 -10 -6 -18 -16 -18 -23 0 -7 4 -6 10 3 5 8 12 11 16 7 4 -3 1 -15 -7 -24
-7 -10 -10 -15 -5 -11 13 11 68 -21 60 -35 -5 -9 -3 -9 7 1 19 18 29 15 30
-10 0 -22 1 -22 9 -3 7 16 9 16 9 4 1 -27 66 -78 95 -75 22 3 25 0 22 -21 -3
-13 -1 -21 5 -18 5 4 7 10 4 15 -3 5 -1 12 5 15 6 4 10 3 9 -2 -3 -18 2 -33
11 -33 5 0 7 8 4 17 -5 14 -4 15 4 4 6 -8 8 -20 5 -28 -5 -13 -1 -14 44 -17
28 -1 38 -12 18 -20 -9 -3 -13 -2 -10 4 3 6 -1 7 -10 4 -17 -7 -15 -14 7 -18
7 -1 19 -6 27 -10 10 -6 12 -5 7 2 -5 8 -2 10 8 6 9 -3 13 -10 10 -15 -3 -5
-1 -9 5 -9 6 0 8 -8 5 -17 -5 -17 -5 -17 6 0 6 9 8 23 5 30 -4 6 1 3 9 -7 12
-15 13 -23 4 -33 -9 -11 -8 -13 3 -11 8 2 13 -3 11 -10 -1 -8 2 -11 7 -8 5 4
14 -1 19 -10 8 -15 10 -15 15 0 5 11 3 15 -5 10 -7 -5 -8 -3 -3 6 5 8 4 11 -3
6 -12 -7 -28 12 -18 21 12 12 43 -28 41 -51 -2 -18 1 -23 13 -21 10 2 17 4 17
5 0 1 8 3 18 5 9 2 15 -1 12 -5 -3 -5 4 -11 15 -15 11 -3 20 -11 20 -16 0 -6
-13 -1 -29 10 -26 19 -29 19 -26 4 1 -10 8 -17 14 -15 18 4 64 -35 49 -41 -7
-3 -2 -4 10 -4 l24 1 -21 18 c-21 16 -21 17 -2 15 11 0 18 -4 15 -8 -2 -4 1
-11 7 -14 5 -4 8 -13 5 -21 -9 -23 4 -16 15 9 9 20 9 20 4 -5 -4 -21 -2 -28
11 -28 9 0 14 -6 11 -14 -4 -9 2 -13 16 -12 17 1 21 -4 19 -19 -2 -11 1 -16 5
-10 14 17 46 19 40 2 -6 -15 15 -18 29 -5 3 4 12 4 20 1 13 -5 40 18 173 147
32 30 120 113 195 185 144 135 197 186 331 313 78 74 143 135 420 397 76 72
162 154 193 184 l55 54 -47 24 c-25 13 -49 24 -53 24 -5 0 -16 8 -27 17 -10 9
-21 17 -25 16 -16 -3 -119 51 -114 59 3 6 1 7 -5 3 -6 -4 -26 -1 -44 7 -32 13
-45 13 -118 3 -19 -2 -59 -7 -88 -10 -28 -4 -67 -8 -85 -11 -30 -5 -87 -11
-183 -20 -23 -2 -59 -6 -79 -9 -21 -4 -63 -9 -94 -12 -49 -6 -77 -9 -116 -13
-5 -1 -30 -19 -55 -40 -24 -22 -49 -37 -55 -34 -5 4 -7 3 -3 -2 7 -7 -17 -38
-26 -33 -2 2 -14 -9 -26 -25 -12 -15 -27 -24 -33 -20 -7 3 -9 3 -5 -2 8 -8
-51 -61 -64 -57 -4 1 -7 -2 -6 -6 2 -4 -9 -20 -24 -35 -16 -16 -28 -24 -28
-20 0 4 -7 -3 -16 -15 -11 -16 -12 -27 -5 -39 7 -12 10 -13 11 -4 0 9 9 12 30
9 17 -3 30 -1 30 4 0 5 9 4 19 -2 25 -13 41 -13 21 0 -13 9 -13 10 0 10 9 0
22 -6 29 -13 10 -8 12 -8 7 0 -3 6 -2 14 4 18 5 3 10 1 10 -4 0 -6 5 -11 11
-11 5 0 8 4 5 8 -2 4 4 9 15 9 13 1 17 -2 12 -10 -4 -7 2 -5 12 3 17 14 18 13
12 -3 -4 -11 -3 -16 3 -12 6 3 10 12 10 18 0 14 77 16 98 3 7 -4 14 -1 17 6 3
8 15 14 25 15 13 1 18 -2 14 -9 -4 -7 -2 -8 5 -4 6 4 20 2 29 -5 13 -11 13 -9
-2 8 l-18 22 31 -9 c19 -5 29 -5 26 1 -8 12 8 12 21 -1 6 -6 15 -5 24 1 12 9
11 10 -5 4 -11 -3 -16 -2 -11 2 9 10 67 12 61 3 -2 -4 2 -7 10 -7 8 0 12 4 9
9 -8 13 11 9 25 -5 10 -10 11 -9 6 4 -5 13 -1 16 19 14 14 -2 30 -6 37 -11 8
-5 9 -3 4 6 -6 10 -4 12 8 7 10 -4 17 -1 17 6 0 8 3 8 9 -2 5 -8 11 -9 15 -3
7 12 46 12 46 0 0 -4 4 -8 10 -8 5 0 7 6 5 13 -4 8 6 12 29 12 25 1 32 -3 25
-11 -5 -6 -5 -15 -1 -19 4 -5 1 -5 -6 -1 -7 4 -9 13 -6 19 4 7 3 8 -2 4 -5 -5
-9 -16 -9 -25 0 -9 -11 -22 -25 -29 -14 -7 -21 -13 -16 -13 4 0 -7 -12 -24
-27 -18 -16 -44 -40 -58 -55 -14 -15 -29 -25 -35 -21 -6 3 -7 2 -4 -4 7 -11
-28 -44 -38 -35 -4 4 -5 3 -3 -3 1 -5 -7 -20 -19 -32 -13 -13 -23 -21 -23 -18
0 3 -8 -3 -18 -12 -11 -10 -17 -21 -15 -25 2 -5 -1 -8 -7 -8 -7 0 -21 -11 -32
-25 -11 -14 -26 -25 -34 -25 -8 0 -12 -5 -9 -10 3 -6 -3 -14 -15 -18 -12 -4
-21 -11 -20 -16 2 -11 -82 -82 -92 -78 -5 1 -7 -2 -3 -8 3 -5 -1 -13 -9 -16
-9 -3 -13 -10 -10 -16 3 -5 -2 -8 -12 -6 -10 2 -19 -2 -19 -8 0 -15 -78 -84
-88 -77 -4 2 -7 1 -6 -4 3 -17 -1 -36 -7 -31 -3 4 -22 -11 -42 -33 -20 -21
-42 -39 -49 -39 -7 0 -41 20 -75 45 -35 25 -99 71 -143 102 -44 31 -82 59 -85
63 -3 3 -21 17 -40 30 -19 13 -37 27 -40 30 -3 3 -37 28 -76 56 l-72 50 62 56
c33 30 76 69 95 84 18 16 53 48 78 71 24 23 46 42 49 42 2 1 4 3 4 6 -1 3 21
23 47 45 26 21 68 57 92 79 24 23 45 41 47 41 1 0 23 20 48 45 26 25 48 45 50
45 2 0 23 19 48 43 24 23 79 74 122 112 44 39 97 87 118 108 22 20 41 37 43
37 1 0 25 21 52 48 27 26 82 76 122 112 40 36 89 81 110 100 21 19 79 73 131
120 51 47 107 99 124 116 18 17 38 28 45 26 8 -3 11 0 7 7 -4 6 -2 9 6 6 8 -3
14 -16 15 -28 0 -12 -1 -16 -4 -9 -3 6 -12 12 -21 11 -11 0 -12 -2 -4 -6 6 -2
12 -11 12 -19 0 -9 3 -13 8 -10 10 6 9 -125 -1 -142 -5 -7 -13 -10 -18 -6 -6
3 -5 -3 2 -14 11 -17 10 -24 -2 -38 -9 -11 -9 -15 -1 -10 15 9 16 -6 2 -20 -7
-7 -6 -11 4 -11 8 0 13 3 11 7 -2 4 2 7 10 7 11 0 12 -4 4 -13 -6 -7 -7 -19
-3 -26 6 -11 5 -11 -8 0 -13 10 -18 10 -24 1 -4 -7 -3 -9 3 -6 6 4 15 -5 22
-20 11 -24 10 -25 -4 -13 -13 11 -15 10 -9 -4 3 -9 11 -16 17 -16 6 0 3 -6 -8
-13 -14 -11 -15 -16 -5 -22 8 -5 11 -4 7 2 -3 5 1 10 9 10 10 0 6 -9 -13 -29
-15 -15 -21 -28 -15 -28 7 0 12 4 12 8 0 5 7 9 17 9 12 0 10 -6 -10 -23 -15
-13 -22 -26 -17 -29 6 -3 10 -2 10 3 0 5 7 9 17 9 12 0 10 -6 -10 -23 -15 -13
-22 -26 -17 -29 6 -3 10 -2 10 3 0 5 7 9 15 9 11 0 12 -4 4 -13 -6 -7 -7 -19
-3 -26 5 -8 1 -8 -11 2 -17 14 -18 14 -5 -9 11 -21 10 -23 -4 -18 -10 4 -15 3
-11 -3 9 -14 35 -13 35 2 0 6 3 8 6 5 4 -4 2 -12 -4 -20 -12 -14 2 -47 15 -34
4 5 1 12 -7 17 -11 7 -11 10 -2 10 7 0 15 -7 19 -16 5 -13 8 -13 15 -2 6 9 7
6 3 -10 -5 -16 -3 -22 7 -20 7 2 12 -4 10 -12 -3 -12 -1 -12 9 -3 8 8 18 9 35
1 13 -6 21 -14 19 -18 -2 -4 2 -7 10 -7 11 0 12 4 4 13 -7 9 -6 14 3 20 7 4
10 4 6 -1 -4 -4 0 -14 8 -22 8 -8 11 -20 7 -26 -3 -7 -2 -8 3 -4 5 5 9 13 9
18 0 11 5 12 27 4 10 -4 15 -11 12 -16 -3 -5 -1 -9 5 -9 5 0 12 6 14 13 3 6 6
2 6 -10 1 -13 6 -23 12 -23 5 0 8 4 5 8 -3 5 1 9 9 9 9 0 14 -7 13 -15 -2 -8
3 -17 11 -20 9 -3 11 1 6 18 -6 20 -5 21 15 10 11 -6 26 -10 33 -7 16 5 19
1467 2 1467 -6 0 -23 -10 -39 -22z m-306 -933 c0 -8 -2 -15 -4 -15 -2 0 -6 7
-10 15 -3 8 -1 15 4 15 6 0 10 -7 10 -15z m0 -35 c0 -5 -2 -10 -4 -10 -3 0 -8
5 -11 10 -3 6 -1 10 4 10 6 0 11 -4 11 -10z m80 -390 c0 -5 -2 -10 -4 -10 -3
0 -8 5 -11 10 -3 6 -1 10 4 10 6 0 11 -4 11 -10z m-1828 -944 c7 4 8 2 4 -4
-3 -6 2 -15 11 -21 10 -5 15 -12 12 -15 -3 -3 -15 3 -26 14 -12 10 -24 16 -27
12 -4 -3 -4 2 0 13 5 11 9 14 12 7 2 -7 9 -9 14 -6z m92 -78 c-5 -7 -2 -9 9
-5 12 4 14 2 10 -10 -4 -10 -2 -14 4 -10 6 4 22 -2 34 -13 l24 -19 -24 4 c-38
7 -92 65 -60 65 5 0 7 -5 3 -12z m170 -113 c-4 -8 -8 -15 -10 -15 -2 0 -4 7
-4 15 0 8 4 15 10 15 5 0 7 -7 4 -15z m198 -142 c-6 -2 -9 -10 -6 -15 4 -7 2
-8 -5 -4 -13 9 -5 26 12 25 9 0 8 -2 -1 -6z m167 -119 c4 3 8 -5 8 -16 2 -20
1 -20 -12 -2 -8 11 -14 24 -14 29 0 6 3 4 6 -3 2 -6 8 -10 12 -8z m36 -24 c3
-5 1 -10 -4 -10 -6 0 -11 5 -11 10 0 6 2 10 4 10 3 0 8 -4 11 -10z"/>
<path d="M43 2745 c-10 -11 -9 -13 7 -12 20 1 26 12 13 20 -5 3 -14 -1 -20 -8z"/>
<path d="M50 2600 c-9 -6 -10 -10 -3 -10 6 0 15 5 18 10 8 12 4 12 -15 0z"/>
<path d="M50 2120 c-9 -6 -10 -10 -3 -10 6 0 15 5 18 10 8 12 4 12 -15 0z"/>
<path d="M2517 2089 c8 -8 9 -17 3 -24 -7 -8 -5 -12 3 -12 19 0 18 34 -1 42
-13 5 -14 4 -5 -6z"/>
<path d="M2516 2032 c-3 -5 1 -9 9 -9 8 0 12 4 9 9 -3 4 -7 8 -9 8 -2 0 -6 -4
-9 -8z"/>
<path d="M626 1842 c-3 -5 1 -9 9 -9 8 0 15 4 15 9 0 4 -4 8 -9 8 -6 0 -12 -4
-15 -8z"/>
<path d="M741 1736 c-10 -12 -8 -13 8 -9 12 3 18 9 15 14 -7 12 -10 11 -23 -5z"/>
<path d="M50 1640 c-9 -6 -10 -10 -3 -10 6 0 15 5 18 10 8 12 4 12 -15 0z"/>
<path d="M855 1630 c-3 -5 -2 -10 4 -10 5 0 13 5 16 10 3 6 2 10 -4 10 -5 0
-13 -4 -16 -10z"/>
<path d="M2736 1487 c3 -10 9 -15 12 -12 3 3 0 11 -7 18 -10 9 -11 8 -5 -6z"/>
<path d="M2830 1160 c-29 -27 -57 -47 -63 -43 -6 3 -7 1 -3 -5 4 -7 2 -12 -4
-12 -6 0 -8 -4 -5 -10 3 -5 2 -10 -3 -10 -4 0 -48 -38 -96 -85 -47 -47 -91
-85 -96 -85 -6 0 -9 -3 -9 -7 5 -28 -3 -83 -11 -83 -5 0 -6 8 -3 17 6 15 5 16
-9 3 -15 -14 -14 -16 3 -26 23 -12 15 -25 -9 -18 -14 5 -14 4 1 -6 9 -6 21 -9
26 -6 4 3 6 -7 3 -22 -4 -19 -7 -22 -10 -9 -4 20 -17 22 -28 5 -4 -6 -3 -8 3
-5 6 4 13 -2 16 -13 3 -11 0 -20 -6 -20 -7 0 -6 -4 3 -9 8 -6 17 -8 21 -6 3 3
4 -7 1 -20 -2 -14 -8 -25 -13 -25 -5 0 -6 7 -3 15 4 8 2 15 -4 15 -14 0 -8
-33 6 -38 7 -2 10 -8 7 -12 -3 -5 -13 -7 -23 -4 -10 4 -13 3 -6 -3 6 -4 10
-18 9 -31 -1 -13 5 -27 14 -32 9 -5 12 -10 7 -10 -5 0 -2 -8 5 -17 8 -9 10
-14 4 -11 -5 3 -16 0 -23 -8 -12 -14 -6 -19 20 -15 3 0 3 -12 -2 -28 -4 -15
-4 -35 1 -44 6 -10 5 -18 -2 -23 -8 -4 -9 -3 -5 4 4 7 2 12 -4 12 -6 0 -8 5
-5 10 3 6 1 10 -5 10 -7 0 -9 -7 -6 -16 3 -9 6 -22 6 -30 0 -9 5 -12 13 -8 10
6 10 4 0 -7 -7 -7 -13 -21 -13 -31 0 -10 -5 -18 -12 -18 -6 0 -8 -3 -5 -6 4
-4 13 -2 20 4 11 10 14 5 13 -27 -1 -22 -4 -43 -9 -47 -4 -4 -7 -22 -7 -41 0
-18 -4 -33 -10 -33 -5 0 -10 -5 -10 -12 0 -9 3 -9 12 0 7 7 16 12 22 12 6 0 5
-5 -2 -12 -16 -16 -15 -31 1 -22 6 4 9 4 5 -1 -4 -4 -2 -15 5 -23 10 -13 9
-14 -9 -4 -16 9 -21 8 -21 -3 0 -8 4 -12 8 -9 4 2 12 -4 18 -13 12 -23 17 -21
50 20 27 35 163 187 214 240 15 16 27 30 27 32 0 2 15 20 33 40 l32 36 1 370
c0 268 -3 369 -11 369 -6 0 -35 -22 -65 -50z m-278 -555 c-5 -28 -21 -34 -18
-7 1 13 13 31 22 32 1 0 -1 -11 -4 -25z"/>
<path d="M50 1160 c-9 -6 -10 -10 -3 -10 6 0 15 5 18 10 8 12 4 12 -15 0z"/>
<path d="M633 685 c0 -8 4 -15 9 -15 4 0 8 4 8 9 0 6 -4 12 -8 15 -5 3 -9 -1
-9 -9z"/>
<path d="M50 680 c-9 -6 -10 -10 -3 -10 6 0 15 5 18 10 8 12 4 12 -15 0z"/>
<path d="M2516 551 c-4 -5 -2 -12 3 -15 5 -4 12 -2 15 3 4 5 2 12 -3 15 -5 4
-12 2 -15 -3z"/>
<path d="M2519 491 c8 -5 10 -14 6 -22 -6 -11 -5 -11 5 -2 14 12 6 33 -13 33
-8 0 -7 -3 2 -9z"/>
<path d="M2525 313 c3 -3 -1 -13 -8 -21 -8 -11 -8 -14 0 -9 6 4 14 1 17 -5 2
-7 4 -3 2 9 -1 12 -5 25 -9 28 -4 3 -5 2 -2 -2z"/>
<path d="M220 239 c0 -5 5 -7 10 -4 6 3 10 8 10 11 0 2 -4 4 -10 4 -5 0 -10
-5 -10 -11z"/>
<path d="M297 174 c7 -3 9 -13 6 -22 -4 -14 -3 -14 5 -2 12 16 7 30 -11 29 -9
0 -9 -2 0 -5z"/>
<path d="M376 102 c-3 -5 1 -9 9 -9 8 0 12 4 9 9 -3 4 -7 8 -9 8 -2 0 -6 -4
-9 -8z"/>
</g>
</svg>
